<svg xmlns="http://www.w3.org/2000/svg" width="191.380" height="14.146" viewBox="0 0 191.380 14.146" fill="none">
  <path d="M 3.151 10.895 L 0 1.003 L 1.625 1.003 L 3.533 7.193 C 3.589 7.344 3.641 7.523 3.688 7.73 C 3.736 7.928 3.778 8.13 3.816 8.338 C 3.853 8.545 3.886 8.738 3.915 8.917 C 3.952 9.096 3.985 9.242 4.013 9.355 L 3.604 9.341 C 3.745 8.842 3.853 8.455 3.929 8.182 C 4.013 7.909 4.079 7.702 4.127 7.56 C 4.174 7.41 4.216 7.282 4.254 7.179 L 6.034 2.713 L 7.405 2.713 L 9.129 7.179 C 9.223 7.405 9.303 7.631 9.369 7.857 C 9.445 8.074 9.511 8.295 9.567 8.521 C 9.624 8.738 9.685 8.969 9.751 9.214 L 9.384 9.313 C 9.431 9.058 9.464 8.86 9.482 8.719 C 9.511 8.568 9.534 8.446 9.553 8.352 C 9.572 8.258 9.591 8.168 9.61 8.083 C 9.629 7.989 9.657 7.871 9.694 7.73 C 9.742 7.589 9.803 7.396 9.878 7.151 L 11.758 1.003 L 13.397 1.003 L 10.246 10.895 L 9.186 10.895 L 6.571 4.706 L 6.698 4.762 L 4.183 10.895 L 3.151 10.895 Z" fill="currentColor" fill-rule="nonzero"></path>
  <path d="M 17.449 11.037 C 16.723 11.037 16.073 10.872 15.498 10.542 C 14.933 10.203 14.486 9.746 14.156 9.171 C 13.826 8.587 13.661 7.923 13.661 7.179 C 13.661 6.435 13.826 5.775 14.156 5.2 C 14.486 4.616 14.933 4.159 15.498 3.83 C 16.073 3.49 16.723 3.321 17.449 3.321 C 18.165 3.321 18.805 3.49 19.371 3.83 C 19.945 4.159 20.397 4.616 20.727 5.2 C 21.057 5.775 21.222 6.435 21.222 7.179 C 21.222 7.923 21.057 8.587 20.727 9.171 C 20.397 9.746 19.945 10.203 19.371 10.542 C 18.805 10.872 18.165 11.037 17.449 11.037 Z M 17.449 9.708 C 17.891 9.708 18.287 9.6 18.636 9.383 C 18.984 9.157 19.258 8.856 19.455 8.479 C 19.653 8.093 19.747 7.659 19.738 7.179 C 19.747 6.689 19.653 6.256 19.455 5.879 C 19.258 5.492 18.984 5.191 18.636 4.974 C 18.287 4.758 17.891 4.649 17.449 4.649 C 17.006 4.649 16.605 4.762 16.247 4.988 C 15.899 5.205 15.626 5.507 15.428 5.893 C 15.23 6.27 15.136 6.698 15.145 7.179 C 15.136 7.659 15.23 8.093 15.428 8.479 C 15.626 8.856 15.899 9.157 16.247 9.383 C 16.605 9.6 17.006 9.708 17.449 9.708 Z" fill="currentColor" fill-rule="nonzero"></path>
  <path d="M 22.525 10.895 L 22.525 3.476 L 23.995 3.476 L 23.995 5.808 L 23.854 5.243 C 23.957 4.885 24.132 4.56 24.377 4.268 C 24.631 3.976 24.918 3.745 25.239 3.575 C 25.568 3.406 25.908 3.321 26.256 3.321 C 26.416 3.321 26.567 3.335 26.708 3.363 C 26.859 3.392 26.977 3.425 27.062 3.462 L 26.68 5.045 C 26.567 4.998 26.44 4.96 26.298 4.932 C 26.167 4.894 26.035 4.875 25.903 4.875 C 25.648 4.875 25.403 4.927 25.168 5.031 C 24.942 5.125 24.739 5.262 24.56 5.441 C 24.391 5.61 24.254 5.813 24.15 6.048 C 24.047 6.274 23.995 6.524 23.995 6.797 L 23.995 10.895 L 22.525 10.895 Z" fill="currentColor" fill-rule="nonzero"></path>
  <path d="M 29.271 8.578 L 29.2 6.995 L 32.747 3.476 L 34.711 3.476 L 29.271 8.578 Z M 27.942 10.895 L 27.942 0.438 L 29.398 0.438 L 29.398 10.895 L 27.942 10.895 Z M 32.945 10.895 L 30.147 7.631 L 31.179 6.684 L 34.81 10.895 L 32.945 10.895 Z" fill="currentColor" fill-rule="nonzero"></path>
  <path d="M 38.096 11.037 C 37.474 11.037 36.913 10.928 36.414 10.712 C 35.915 10.495 35.5 10.175 35.17 9.751 L 36.16 8.903 C 36.442 9.233 36.748 9.473 37.078 9.624 C 37.417 9.765 37.799 9.836 38.223 9.836 C 38.392 9.836 38.548 9.817 38.689 9.779 C 38.84 9.732 38.967 9.666 39.071 9.581 C 39.184 9.496 39.269 9.397 39.325 9.284 C 39.382 9.162 39.41 9.03 39.41 8.889 C 39.41 8.644 39.32 8.446 39.141 8.295 C 39.047 8.229 38.897 8.159 38.689 8.083 C 38.491 7.998 38.232 7.914 37.912 7.829 C 37.366 7.688 36.918 7.527 36.569 7.348 C 36.221 7.169 35.952 6.967 35.764 6.741 C 35.623 6.562 35.519 6.369 35.453 6.161 C 35.387 5.945 35.354 5.709 35.354 5.455 C 35.354 5.144 35.42 4.861 35.552 4.607 C 35.693 4.343 35.882 4.117 36.117 3.929 C 36.362 3.731 36.645 3.58 36.965 3.476 C 37.295 3.373 37.643 3.321 38.011 3.321 C 38.36 3.321 38.703 3.368 39.043 3.462 C 39.391 3.556 39.711 3.693 40.004 3.872 C 40.296 4.051 40.541 4.263 40.738 4.508 L 39.905 5.427 C 39.726 5.248 39.528 5.092 39.311 4.96 C 39.104 4.819 38.892 4.711 38.675 4.635 C 38.458 4.56 38.261 4.522 38.082 4.522 C 37.884 4.522 37.705 4.541 37.545 4.579 C 37.384 4.616 37.248 4.673 37.135 4.748 C 37.031 4.824 36.951 4.918 36.895 5.031 C 36.838 5.144 36.81 5.271 36.81 5.412 C 36.819 5.535 36.847 5.653 36.895 5.766 C 36.951 5.869 37.026 5.959 37.121 6.034 C 37.224 6.11 37.38 6.19 37.587 6.274 C 37.794 6.359 38.058 6.439 38.378 6.515 C 38.849 6.637 39.236 6.774 39.537 6.924 C 39.848 7.066 40.093 7.231 40.272 7.419 C 40.46 7.598 40.592 7.805 40.668 8.041 C 40.743 8.276 40.781 8.54 40.781 8.832 C 40.781 9.256 40.658 9.638 40.413 9.977 C 40.178 10.307 39.857 10.566 39.452 10.754 C 39.047 10.943 38.595 11.037 38.096 11.037 Z" fill="currentColor" fill-rule="nonzero"></path>
  <path d="M 42.102 14.004 L 42.102 3.476 L 43.572 3.476 L 43.572 5.172 L 43.346 5.045 C 43.402 4.762 43.563 4.494 43.826 4.239 C 44.09 3.976 44.411 3.764 44.787 3.604 C 45.174 3.434 45.569 3.349 45.974 3.349 C 46.643 3.349 47.237 3.514 47.755 3.844 C 48.273 4.174 48.683 4.626 48.985 5.2 C 49.286 5.775 49.437 6.435 49.437 7.179 C 49.437 7.914 49.286 8.573 48.985 9.157 C 48.692 9.732 48.287 10.189 47.769 10.528 C 47.251 10.858 46.667 11.023 46.017 11.023 C 45.583 11.023 45.164 10.938 44.759 10.768 C 44.354 10.589 44.01 10.363 43.727 10.09 C 43.445 9.817 43.271 9.534 43.205 9.242 L 43.572 9.044 L 43.572 14.004 L 42.102 14.004 Z M 45.777 9.68 C 46.21 9.68 46.596 9.572 46.935 9.355 C 47.275 9.138 47.543 8.842 47.741 8.465 C 47.939 8.088 48.038 7.659 48.038 7.179 C 48.038 6.698 47.939 6.274 47.741 5.907 C 47.552 5.53 47.289 5.233 46.95 5.017 C 46.61 4.8 46.219 4.692 45.777 4.692 C 45.334 4.692 44.943 4.8 44.604 5.017 C 44.264 5.224 43.996 5.516 43.798 5.893 C 43.6 6.27 43.501 6.698 43.501 7.179 C 43.501 7.659 43.6 8.088 43.798 8.465 C 43.996 8.842 44.264 9.138 44.604 9.355 C 44.943 9.572 45.334 9.68 45.777 9.68 Z" fill="currentColor" fill-rule="nonzero"></path>
  <path d="M 53.59 11.037 C 52.977 11.037 52.417 10.867 51.908 10.528 C 51.409 10.189 51.008 9.727 50.707 9.143 C 50.405 8.559 50.254 7.9 50.254 7.165 C 50.254 6.42 50.405 5.761 50.707 5.186 C 51.018 4.602 51.432 4.145 51.95 3.816 C 52.478 3.486 53.067 3.321 53.717 3.321 C 54.103 3.321 54.456 3.377 54.777 3.49 C 55.097 3.604 55.375 3.764 55.61 3.971 C 55.855 4.169 56.053 4.4 56.204 4.663 C 56.364 4.927 56.463 5.21 56.501 5.511 L 56.176 5.398 L 56.176 3.476 L 57.645 3.476 L 57.645 10.895 L 56.176 10.895 L 56.176 9.129 L 56.515 9.03 C 56.458 9.284 56.341 9.534 56.162 9.779 C 55.992 10.015 55.771 10.227 55.497 10.415 C 55.234 10.603 54.937 10.754 54.607 10.867 C 54.287 10.98 53.948 11.037 53.59 11.037 Z M 53.971 9.694 C 54.414 9.694 54.805 9.586 55.144 9.369 C 55.483 9.153 55.747 8.856 55.935 8.479 C 56.133 8.093 56.232 7.655 56.232 7.165 C 56.232 6.684 56.133 6.256 55.935 5.879 C 55.747 5.502 55.483 5.205 55.144 4.988 C 54.805 4.772 54.414 4.663 53.971 4.663 C 53.538 4.663 53.151 4.772 52.812 4.988 C 52.483 5.205 52.219 5.502 52.021 5.879 C 51.832 6.256 51.738 6.684 51.738 7.165 C 51.738 7.655 51.832 8.093 52.021 8.479 C 52.219 8.856 52.483 9.153 52.812 9.369 C 53.151 9.586 53.538 9.694 53.971 9.694 Z" fill="currentColor" fill-rule="nonzero"></path>
  <path d="M 62.546 11.037 C 61.859 11.037 61.242 10.867 60.695 10.528 C 60.158 10.189 59.73 9.727 59.409 9.143 C 59.098 8.559 58.943 7.904 58.943 7.179 C 58.943 6.453 59.098 5.799 59.409 5.215 C 59.73 4.63 60.158 4.169 60.695 3.83 C 61.242 3.49 61.859 3.321 62.546 3.321 C 63.206 3.321 63.804 3.458 64.341 3.731 C 64.888 3.995 65.302 4.357 65.585 4.819 L 64.779 5.808 C 64.629 5.591 64.435 5.394 64.2 5.215 C 63.964 5.036 63.715 4.894 63.451 4.791 C 63.187 4.687 62.933 4.635 62.688 4.635 C 62.236 4.635 61.83 4.748 61.472 4.974 C 61.124 5.191 60.846 5.492 60.639 5.879 C 60.431 6.265 60.328 6.698 60.328 7.179 C 60.328 7.659 60.436 8.093 60.653 8.479 C 60.869 8.856 61.157 9.157 61.515 9.383 C 61.873 9.609 62.269 9.722 62.702 9.722 C 62.956 9.722 63.201 9.68 63.437 9.595 C 63.682 9.511 63.917 9.383 64.143 9.214 C 64.369 9.044 64.581 8.837 64.779 8.592 L 65.585 9.581 C 65.283 10.005 64.85 10.354 64.285 10.627 C 63.729 10.9 63.149 11.037 62.546 11.037 Z" fill="currentColor" fill-rule="nonzero"></path>
  <path d="M 70.137 11.037 C 69.374 11.037 68.696 10.877 68.102 10.556 C 67.518 10.227 67.057 9.779 66.718 9.214 C 66.388 8.649 66.223 7.998 66.223 7.264 C 66.223 6.68 66.317 6.147 66.506 5.667 C 66.694 5.186 66.953 4.772 67.283 4.423 C 67.622 4.065 68.022 3.792 68.484 3.604 C 68.955 3.406 69.464 3.307 70.01 3.307 C 70.491 3.307 70.938 3.401 71.353 3.589 C 71.767 3.768 72.125 4.018 72.427 4.338 C 72.738 4.659 72.973 5.04 73.133 5.483 C 73.303 5.916 73.383 6.392 73.374 6.91 L 73.36 7.532 L 67.297 7.532 L 66.972 6.373 L 72.102 6.373 L 71.89 6.614 L 71.89 6.274 C 71.862 5.964 71.758 5.686 71.579 5.441 C 71.4 5.196 71.174 5.003 70.901 4.861 C 70.627 4.72 70.331 4.649 70.01 4.649 C 69.502 4.649 69.073 4.748 68.724 4.946 C 68.376 5.134 68.112 5.417 67.933 5.794 C 67.754 6.161 67.664 6.618 67.664 7.165 C 67.664 7.683 67.773 8.135 67.989 8.521 C 68.206 8.898 68.512 9.19 68.908 9.397 C 69.304 9.605 69.761 9.708 70.279 9.708 C 70.646 9.708 70.985 9.647 71.296 9.525 C 71.617 9.402 71.96 9.181 72.328 8.86 L 73.063 9.892 C 72.837 10.118 72.559 10.316 72.229 10.486 C 71.909 10.655 71.565 10.792 71.197 10.895 C 70.839 10.99 70.486 11.037 70.137 11.037 Z" fill="currentColor" fill-rule="nonzero"></path>
  <path d="M 81.771 11.037 C 81.234 11.037 80.735 10.966 80.273 10.825 C 79.821 10.683 79.406 10.471 79.029 10.189 C 78.662 9.897 78.332 9.539 78.04 9.115 L 79.086 7.914 C 79.548 8.573 79.99 9.03 80.414 9.284 C 80.838 9.539 81.342 9.666 81.926 9.666 C 82.284 9.666 82.609 9.609 82.902 9.496 C 83.194 9.383 83.424 9.228 83.594 9.03 C 83.764 8.832 83.848 8.606 83.848 8.352 C 83.848 8.182 83.82 8.022 83.764 7.871 C 83.707 7.721 83.618 7.584 83.495 7.461 C 83.382 7.339 83.231 7.226 83.043 7.122 C 82.864 7.019 82.652 6.929 82.407 6.854 C 82.162 6.769 81.879 6.698 81.559 6.642 C 81.05 6.538 80.607 6.402 80.231 6.232 C 79.854 6.062 79.538 5.85 79.284 5.596 C 79.029 5.342 78.841 5.054 78.718 4.734 C 78.596 4.404 78.535 4.037 78.535 3.632 C 78.535 3.236 78.62 2.869 78.789 2.53 C 78.968 2.19 79.208 1.898 79.51 1.653 C 79.821 1.399 80.183 1.206 80.598 1.074 C 81.013 0.933 81.46 0.862 81.941 0.862 C 82.449 0.862 82.916 0.928 83.34 1.06 C 83.764 1.192 84.14 1.39 84.47 1.653 C 84.8 1.908 85.073 2.223 85.29 2.6 L 84.216 3.66 C 84.027 3.349 83.815 3.09 83.58 2.883 C 83.344 2.666 83.085 2.506 82.803 2.402 C 82.52 2.289 82.218 2.233 81.898 2.233 C 81.531 2.233 81.21 2.289 80.937 2.402 C 80.664 2.515 80.447 2.676 80.287 2.883 C 80.136 3.081 80.061 3.316 80.061 3.589 C 80.061 3.787 80.099 3.971 80.174 4.141 C 80.249 4.301 80.362 4.447 80.513 4.579 C 80.673 4.701 80.885 4.814 81.149 4.918 C 81.413 5.012 81.729 5.097 82.096 5.172 C 82.614 5.285 83.076 5.431 83.481 5.61 C 83.886 5.78 84.23 5.982 84.513 6.218 C 84.795 6.453 85.007 6.717 85.148 7.009 C 85.299 7.301 85.375 7.617 85.375 7.956 C 85.375 8.587 85.229 9.134 84.936 9.595 C 84.644 10.057 84.23 10.415 83.693 10.669 C 83.156 10.914 82.515 11.037 81.771 11.037 Z" fill="currentColor" fill-rule="nonzero"></path>
  <path d="M 90.349 11.037 C 89.586 11.037 88.908 10.877 88.314 10.556 C 87.73 10.227 87.269 9.779 86.929 9.214 C 86.6 8.649 86.435 7.998 86.435 7.264 C 86.435 6.68 86.529 6.147 86.717 5.667 C 86.906 5.186 87.165 4.772 87.495 4.423 C 87.834 4.065 88.234 3.792 88.696 3.604 C 89.167 3.406 89.676 3.307 90.222 3.307 C 90.703 3.307 91.15 3.401 91.565 3.589 C 91.979 3.768 92.337 4.018 92.639 4.338 C 92.95 4.659 93.185 5.04 93.345 5.483 C 93.515 5.916 93.595 6.392 93.586 6.91 L 93.571 7.532 L 87.509 7.532 L 87.184 6.373 L 92.314 6.373 L 92.102 6.614 L 92.102 6.274 C 92.073 5.964 91.97 5.686 91.791 5.441 C 91.612 5.196 91.386 5.003 91.112 4.861 C 90.839 4.72 90.542 4.649 90.222 4.649 C 89.713 4.649 89.285 4.748 88.936 4.946 C 88.588 5.134 88.324 5.417 88.145 5.794 C 87.966 6.161 87.876 6.618 87.876 7.165 C 87.876 7.683 87.985 8.135 88.201 8.521 C 88.418 8.898 88.724 9.19 89.12 9.397 C 89.516 9.605 89.972 9.708 90.491 9.708 C 90.858 9.708 91.197 9.647 91.508 9.525 C 91.828 9.402 92.172 9.181 92.54 8.86 L 93.275 9.892 C 93.049 10.118 92.771 10.316 92.441 10.486 C 92.121 10.655 91.777 10.792 91.409 10.895 C 91.051 10.99 90.698 11.037 90.349 11.037 Z" fill="currentColor" fill-rule="nonzero"></path>
  <path d="M 98.036 11.037 C 97.348 11.037 96.731 10.867 96.185 10.528 C 95.648 10.189 95.219 9.727 94.899 9.143 C 94.588 8.559 94.433 7.904 94.433 7.179 C 94.433 6.453 94.588 5.799 94.899 5.215 C 95.219 4.63 95.648 4.169 96.185 3.83 C 96.731 3.49 97.348 3.321 98.036 3.321 C 98.696 3.321 99.294 3.458 99.831 3.731 C 100.377 3.995 100.792 4.357 101.075 4.819 L 100.269 5.808 C 100.118 5.591 99.925 5.394 99.69 5.215 C 99.454 5.036 99.204 4.894 98.941 4.791 C 98.677 4.687 98.422 4.635 98.177 4.635 C 97.725 4.635 97.32 4.748 96.962 4.974 C 96.614 5.191 96.336 5.492 96.128 5.879 C 95.921 6.265 95.817 6.698 95.817 7.179 C 95.817 7.659 95.926 8.093 96.143 8.479 C 96.359 8.856 96.647 9.157 97.005 9.383 C 97.363 9.609 97.758 9.722 98.192 9.722 C 98.446 9.722 98.691 9.68 98.926 9.595 C 99.171 9.511 99.407 9.383 99.633 9.214 C 99.859 9.044 100.071 8.837 100.269 8.592 L 101.075 9.581 C 100.773 10.005 100.34 10.354 99.774 10.627 C 99.219 10.9 98.639 11.037 98.036 11.037 Z" fill="currentColor" fill-rule="nonzero"></path>
  <path d="M 104.765 11.037 C 104.238 11.037 103.776 10.914 103.38 10.669 C 102.994 10.424 102.692 10.08 102.476 9.638 C 102.269 9.195 102.165 8.667 102.165 8.055 L 102.165 3.476 L 103.62 3.476 L 103.62 7.659 C 103.62 8.093 103.686 8.47 103.818 8.79 C 103.96 9.101 104.157 9.341 104.412 9.511 C 104.676 9.68 104.991 9.765 105.359 9.765 C 105.632 9.765 105.882 9.722 106.108 9.638 C 106.334 9.543 106.527 9.416 106.687 9.256 C 106.857 9.096 106.989 8.903 107.083 8.677 C 107.177 8.451 107.224 8.206 107.224 7.942 L 107.224 3.476 L 108.68 3.476 L 108.68 10.895 L 107.224 10.895 L 107.224 9.341 L 107.478 9.171 C 107.365 9.52 107.172 9.836 106.899 10.118 C 106.635 10.401 106.32 10.627 105.952 10.796 C 105.585 10.957 105.189 11.037 104.765 11.037 Z" fill="currentColor" fill-rule="nonzero"></path>
  <path d="M 110.439 10.895 L 110.439 3.476 L 111.908 3.476 L 111.908 5.808 L 111.767 5.243 C 111.871 4.885 112.045 4.56 112.29 4.268 C 112.544 3.976 112.832 3.745 113.152 3.575 C 113.482 3.406 113.821 3.321 114.169 3.321 C 114.33 3.321 114.48 3.335 114.622 3.363 C 114.772 3.392 114.89 3.425 114.975 3.462 L 114.593 5.045 C 114.48 4.998 114.353 4.96 114.212 4.932 C 114.08 4.894 113.948 4.875 113.816 4.875 C 113.562 4.875 113.317 4.927 113.081 5.031 C 112.855 5.125 112.653 5.262 112.474 5.441 C 112.304 5.61 112.167 5.813 112.064 6.048 C 111.96 6.274 111.908 6.524 111.908 6.797 L 111.908 10.895 L 110.439 10.895 Z" fill="currentColor" fill-rule="nonzero"></path>
  <path d="M 116.096 10.895 L 116.096 3.476 L 117.551 3.476 L 117.551 10.895 L 116.096 10.895 Z M 116.802 1.837 C 116.492 1.837 116.251 1.757 116.082 1.597 C 115.912 1.437 115.827 1.211 115.827 0.919 C 115.827 0.645 115.912 0.424 116.082 0.254 C 116.261 0.085 116.501 0 116.802 0 C 117.113 0 117.354 0.08 117.523 0.24 C 117.693 0.4 117.778 0.626 117.778 0.919 C 117.778 1.192 117.688 1.413 117.509 1.583 C 117.339 1.752 117.104 1.837 116.802 1.837 Z" fill="currentColor" fill-rule="nonzero"></path>
  <path d="M 120.425 10.895 L 120.425 1.583 L 121.88 1.583 L 121.88 10.895 L 120.425 10.895 Z M 118.884 4.89 L 118.884 3.476 L 123.604 3.476 L 123.604 4.89 L 118.884 4.89 Z" fill="currentColor" fill-rule="nonzero"></path>
  <path d="M 125.891 14.146 L 127.389 10.683 L 127.403 11.842 L 123.7 3.476 L 125.396 3.476 L 127.714 8.931 C 127.761 9.025 127.817 9.171 127.883 9.369 C 127.949 9.558 128.006 9.746 128.053 9.934 L 127.686 10.019 C 127.761 9.821 127.832 9.624 127.898 9.426 C 127.973 9.228 128.044 9.03 128.11 8.832 L 130.046 3.476 L 131.77 3.476 L 128.717 10.895 L 127.459 14.146 L 125.891 14.146 Z" fill="currentColor" fill-rule="nonzero"></path>
  <path d="M 136.622 10.895 L 136.622 1.003 L 140.649 1.003 C 141.186 1.003 141.671 1.14 142.105 1.413 C 142.547 1.677 142.901 2.04 143.165 2.501 C 143.428 2.963 143.56 3.476 143.56 4.042 C 143.56 4.607 143.428 5.12 143.165 5.582 C 142.901 6.044 142.547 6.416 142.105 6.698 C 141.671 6.972 141.186 7.108 140.649 7.108 L 138.148 7.108 L 138.148 10.895 L 136.622 10.895 Z M 138.148 5.638 L 140.621 5.638 C 140.875 5.638 141.106 5.568 141.313 5.427 C 141.521 5.276 141.685 5.083 141.808 4.847 C 141.94 4.602 142.006 4.334 142.006 4.042 C 142.006 3.75 141.94 3.486 141.808 3.25 C 141.685 3.015 141.521 2.826 141.313 2.685 C 141.106 2.544 140.875 2.473 140.621 2.473 L 138.148 2.473 L 138.148 5.638 Z" fill="currentColor" fill-rule="nonzero"></path>
  <path d="M 144.956 10.895 L 144.956 0.438 L 146.412 0.438 L 146.412 10.895 L 144.956 10.895 Z" fill="currentColor" fill-rule="nonzero"></path>
  <path d="M 150.909 11.037 C 150.296 11.037 149.736 10.867 149.227 10.528 C 148.728 10.189 148.327 9.727 148.026 9.143 C 147.724 8.559 147.574 7.9 147.574 7.165 C 147.574 6.42 147.724 5.761 148.026 5.186 C 148.337 4.602 148.751 4.145 149.27 3.816 C 149.797 3.486 150.386 3.321 151.036 3.321 C 151.422 3.321 151.776 3.377 152.096 3.49 C 152.416 3.604 152.694 3.764 152.93 3.971 C 153.175 4.169 153.372 4.4 153.523 4.663 C 153.683 4.927 153.782 5.21 153.82 5.511 L 153.495 5.398 L 153.495 3.476 L 154.965 3.476 L 154.965 10.895 L 153.495 10.895 L 153.495 9.129 L 153.834 9.03 C 153.778 9.284 153.66 9.534 153.481 9.779 C 153.311 10.015 153.09 10.227 152.817 10.415 C 152.553 10.603 152.256 10.754 151.926 10.867 C 151.606 10.98 151.267 11.037 150.909 11.037 Z M 151.29 9.694 C 151.733 9.694 152.124 9.586 152.463 9.369 C 152.802 9.153 153.066 8.856 153.255 8.479 C 153.453 8.093 153.551 7.655 153.551 7.165 C 153.551 6.684 153.453 6.256 153.255 5.879 C 153.066 5.502 152.802 5.205 152.463 4.988 C 152.124 4.772 151.733 4.663 151.29 4.663 C 150.857 4.663 150.471 4.772 150.132 4.988 C 149.802 5.205 149.538 5.502 149.34 5.879 C 149.152 6.256 149.058 6.684 149.058 7.165 C 149.058 7.655 149.152 8.093 149.34 8.479 C 149.538 8.856 149.802 9.153 150.132 9.369 C 150.471 9.586 150.857 9.694 151.29 9.694 Z" fill="currentColor" fill-rule="nonzero"></path>
  <path d="M 157.633 10.895 L 157.633 1.583 L 159.089 1.583 L 159.089 10.895 L 157.633 10.895 Z M 156.093 4.89 L 156.093 3.476 L 160.813 3.476 L 160.813 4.89 L 156.093 4.89 Z" fill="currentColor" fill-rule="nonzero"></path>
  <path d="M 162.302 10.895 L 162.302 2.643 C 162.302 2.219 162.396 1.842 162.585 1.512 C 162.773 1.182 163.032 0.923 163.362 0.735 C 163.692 0.546 164.073 0.452 164.507 0.452 C 164.808 0.452 165.091 0.509 165.355 0.622 C 165.618 0.735 165.83 0.886 165.99 1.074 L 165.496 2.19 C 165.373 2.077 165.237 1.988 165.086 1.922 C 164.945 1.847 164.808 1.809 164.676 1.809 C 164.478 1.809 164.309 1.842 164.167 1.908 C 164.036 1.964 163.937 2.058 163.871 2.19 C 163.805 2.313 163.772 2.464 163.772 2.643 L 163.772 10.895 L 163.037 10.895 C 162.914 10.895 162.792 10.895 162.67 10.895 C 162.547 10.895 162.425 10.895 162.302 10.895 Z M 161.115 4.946 L 161.115 3.604 L 165.524 3.604 L 165.524 4.946 L 161.115 4.946 Z" fill="currentColor" fill-rule="nonzero"></path>
  <path d="M 169.821 11.037 C 169.095 11.037 168.445 10.872 167.871 10.542 C 167.305 10.203 166.858 9.746 166.528 9.171 C 166.198 8.587 166.034 7.923 166.034 7.179 C 166.034 6.435 166.198 5.775 166.528 5.2 C 166.858 4.616 167.305 4.159 167.871 3.83 C 168.445 3.49 169.095 3.321 169.821 3.321 C 170.537 3.321 171.178 3.49 171.743 3.83 C 172.318 4.159 172.77 4.616 173.099 5.2 C 173.429 5.775 173.594 6.435 173.594 7.179 C 173.594 7.923 173.429 8.587 173.099 9.171 C 172.77 9.746 172.318 10.203 171.743 10.542 C 171.178 10.872 170.537 11.037 169.821 11.037 Z M 169.821 9.708 C 170.264 9.708 170.659 9.6 171.008 9.383 C 171.357 9.157 171.63 8.856 171.828 8.479 C 172.025 8.093 172.12 7.659 172.11 7.179 C 172.12 6.689 172.025 6.256 171.828 5.879 C 171.63 5.492 171.357 5.191 171.008 4.974 C 170.659 4.758 170.264 4.649 169.821 4.649 C 169.378 4.649 168.978 4.762 168.62 4.988 C 168.271 5.205 167.998 5.507 167.8 5.893 C 167.602 6.27 167.508 6.698 167.517 7.179 C 167.508 7.659 167.602 8.093 167.8 8.479 C 167.998 8.856 168.271 9.157 168.62 9.383 C 168.978 9.6 169.378 9.708 169.821 9.708 Z" fill="currentColor" fill-rule="nonzero"></path>
  <path d="M 174.898 10.895 L 174.898 3.476 L 176.367 3.476 L 176.367 5.808 L 176.226 5.243 C 176.33 4.885 176.504 4.56 176.749 4.268 C 177.003 3.976 177.291 3.745 177.611 3.575 C 177.941 3.406 178.28 3.321 178.628 3.321 C 178.788 3.321 178.939 3.335 179.081 3.363 C 179.231 3.392 179.349 3.425 179.434 3.462 L 179.052 5.045 C 178.939 4.998 178.812 4.96 178.671 4.932 C 178.539 4.894 178.407 4.875 178.275 4.875 C 178.021 4.875 177.776 4.927 177.54 5.031 C 177.314 5.125 177.112 5.262 176.933 5.441 C 176.763 5.61 176.626 5.813 176.523 6.048 C 176.419 6.274 176.367 6.524 176.367 6.797 L 176.367 10.895 L 174.898 10.895 Z" fill="currentColor" fill-rule="nonzero"></path>
  <path d="M 180.286 10.895 L 180.286 3.476 L 181.756 3.476 L 181.756 5.059 L 181.488 5.229 C 181.563 4.984 181.681 4.748 181.841 4.522 C 182.01 4.296 182.213 4.098 182.448 3.929 C 182.693 3.75 182.952 3.608 183.226 3.505 C 183.508 3.401 183.796 3.349 184.088 3.349 C 184.512 3.349 184.884 3.42 185.204 3.561 C 185.525 3.702 185.788 3.914 185.996 4.197 C 186.203 4.48 186.354 4.833 186.448 5.257 L 186.222 5.2 L 186.321 4.96 C 186.424 4.743 186.566 4.541 186.745 4.353 C 186.933 4.155 187.145 3.98 187.38 3.83 C 187.616 3.679 187.866 3.561 188.129 3.476 C 188.393 3.392 188.652 3.349 188.907 3.349 C 189.463 3.349 189.919 3.462 190.278 3.688 C 190.645 3.914 190.918 4.258 191.097 4.72 C 191.286 5.182 191.38 5.756 191.38 6.444 L 191.38 10.895 L 189.91 10.895 L 189.91 6.529 C 189.91 6.105 189.854 5.761 189.74 5.497 C 189.637 5.224 189.477 5.021 189.26 4.89 C 189.043 4.758 188.765 4.692 188.426 4.692 C 188.162 4.692 187.913 4.739 187.677 4.833 C 187.451 4.918 187.253 5.04 187.084 5.2 C 186.914 5.361 186.782 5.549 186.688 5.766 C 186.594 5.973 186.547 6.204 186.547 6.458 L 186.547 10.895 L 185.077 10.895 L 185.077 6.501 C 185.077 6.114 185.02 5.789 184.907 5.525 C 184.794 5.252 184.629 5.045 184.413 4.904 C 184.196 4.762 183.932 4.692 183.621 4.692 C 183.358 4.692 183.113 4.739 182.887 4.833 C 182.66 4.918 182.463 5.04 182.293 5.2 C 182.123 5.351 181.992 5.535 181.897 5.752 C 181.803 5.959 181.756 6.185 181.756 6.43 L 181.756 10.895 L 180.286 10.895 Z" fill="currentColor" fill-rule="nonzero"></path>
</svg>